<?xml version="1.0" standalone="no"?>
<!DOCTYPE svg PUBLIC "-//W3C//DTD SVG 20010904//EN"
 "http://www.w3.org/TR/2001/REC-SVG-20010904/DTD/svg10.dtd">
<svg version="1.0" xmlns="http://www.w3.org/2000/svg"
 width="777.000000pt" height="243.000000pt" viewBox="0 0 777.000000 243.000000"
 preserveAspectRatio="xMidYMid meet">
<metadata>
Created by potrace 1.16, written by Peter Selinger 2001-2019
</metadata>
<g transform="translate(0.000000,243.000000) scale(0.100000,-0.100000)"
fill="#000000" stroke="none">
<path d="M1050 2414 c-212 -25 -422 -84 -580 -164 -219 -110 -389 -325 -451
-569 -29 -115 -24 -296 11 -386 39 -100 106 -199 184 -273 84 -77 174 -126
401 -218 345 -139 368 -163 381 -404 5 -108 11 -145 30 -187 27 -61 102 -141
165 -175 l44 -23 2580 -8 c1419 -4 2792 -6 3050 -5 532 3 481 -4 636 93 125
79 192 174 240 337 19 63 22 105 26 306 3 128 2 253 -2 277 -11 80 -49 108
-192 145 l-43 11 0 60 c0 33 7 124 17 202 9 78 17 207 17 287 1 205 -2 210
-186 279 -59 22 -261 90 -451 151 -380 121 -409 127 -518 90 -79 -27 -123 -56
-182 -119 -95 -102 -128 -233 -92 -371 42 -161 122 -233 360 -324 39 -14 76
-30 83 -34 29 -19 228 -552 215 -576 -7 -12 -154 72 -773 443 -1189 711 -1601
957 -1648 980 -213 108 -514 66 -675 -94 -87 -85 -681 -950 -725 -1055 -9 -22
-18 -95 -23 -190 -10 -169 -18 -206 -53 -239 -22 -21 -34 -22 -257 -28 -312
-7 -524 12 -679 64 -95 32 -225 107 -490 284 -430 289 -430 289 -430 326 0 32
23 85 45 103 15 13 104 16 604 21 l586 5 80 27 c297 100 470 325 453 591 -10
155 -122 295 -281 352 -61 22 -1305 29 -1477 8z m835 -116 c209 -2 422 -1 472
0 81 3 99 1 145 -21 99 -45 159 -114 179 -206 14 -65 -15 -188 -62 -267 -55
-91 -169 -173 -309 -222 -38 -13 -137 -16 -635 -21 -579 -6 -591 -6 -630 -28
-127 -68 -172 -244 -88 -343 30 -36 121 -100 481 -341 333 -223 413 -262 628
-310 89 -20 135 -22 460 -26 346 -5 363 -4 400 15 101 52 134 124 144 316 10
171 13 185 58 261 96 161 572 853 637 926 83 93 190 140 325 140 84 0 131 -8
195 -34 28 -11 262 -147 520 -302 259 -155 740 -443 1070 -640 330 -197 643
-383 695 -415 165 -99 174 -103 223 -98 79 9 131 68 130 148 0 29 -21 101 -57
200 -87 239 -158 416 -175 439 -9 12 -79 47 -158 80 -214 89 -247 119 -277
248 -17 77 -7 138 34 198 59 86 149 137 243 136 58 0 825 -249 885 -287 20
-13 22 -22 22 -112 0 -53 -9 -182 -20 -287 -24 -225 -25 -275 -6 -319 19 -45
46 -62 142 -92 l81 -24 7 -131 c14 -261 -14 -440 -90 -559 -58 -91 -183 -173
-289 -189 -49 -7 -622 -7 -1935 -1 -1026 6 -2359 10 -2963 9 l-1098 -1 -39 27
c-45 31 -86 87 -100 136 -6 19 -10 73 -10 120 0 150 -29 245 -95 311 -52 52
-163 111 -355 189 -319 129 -382 173 -469 319 -60 100 -76 159 -75 275 0 82 5
114 28 180 69 201 200 354 379 442 206 102 425 151 727 163 96 4 191 6 210 4
19 -2 206 -4 415 -6z"/>
</g>
</svg>
